<?xml version="1.0" encoding="UTF-8" standalone="no"?>
<!-- Created with Inkscape (http://www.inkscape.org/) -->

<svg
   width="2000mm"
   height="200mm"
   viewBox="0 0 2000 200"
   version="1.1"
   id="svg1"
   xml:space="preserve"
   xmlns:xlink="http://www.w3.org/1999/xlink"
   xmlns="http://www.w3.org/2000/svg"
   xmlns:svg="http://www.w3.org/2000/svg"><defs
     id="defs1"><linearGradient
       id="linearGradient13"><stop
         style="stop-color:#08bdba;stop-opacity:1;"
         offset="0"
         id="stop13" /><stop
         style="stop-color:#11d3f3;stop-opacity:1;"
         offset="1"
         id="stop14" /></linearGradient><linearGradient
       id="linearGradient11"><stop
         style="stop-color:#8a3ffc;stop-opacity:1;"
         offset="0"
         id="stop11" /><stop
         style="stop-color:#7d7cf9;stop-opacity:1;"
         offset="1"
         id="stop12" /></linearGradient><linearGradient
       id="linearGradient9"><stop
         style="stop-color:#aefb2a;stop-opacity:1;"
         offset="0"
         id="stop9" /><stop
         style="stop-color:#57ebde;stop-opacity:1;"
         offset="0.50728208"
         id="stop10" /></linearGradient><linearGradient
       id="linearGradient7"><stop
         style="stop-color:#ff0066;stop-opacity:1;"
         offset="0"
         id="stop7" /><stop
         style="stop-color:#45caff;stop-opacity:1;"
         offset="1"
         id="stop8" /></linearGradient><linearGradient
       id="linearGradient5"><stop
         style="stop-color:#60efff;stop-opacity:1;"
         offset="0"
         id="stop5" /><stop
         style="stop-color:#0061ff;stop-opacity:1;"
         offset="1"
         id="stop6" /></linearGradient><linearGradient
       xlink:href="#linearGradient5"
       id="linearGradient6"
       x1="308.03525"
       y1="100"
       x2="691.96472"
       y2="100"
       gradientUnits="userSpaceOnUse"
       gradientTransform="matrix(1.9287235,0,0,2.0701451,-565.36217,-56.561604)" /><linearGradient
       id="sw-gradient-6"
       x1="0.54537833"
       x2="28.396441"
       y1="13.93745"
       y2="13.937451"
       gradientTransform="matrix(-3.410905,6.0693997,-5.869295,-3.2984494,700.43331,108.78013)"
       gradientUnits="userSpaceOnUse"><stop
         id="stop1-1"
         stop-color="rgba(248, 117, 55, 1)"
         offset="0"
         style="stop-color:#ff930f;stop-opacity:1;" /><stop
         id="stop2"
         stop-color="rgba(251, 168, 31, 1)"
         offset="1"
         style="stop-color:#fff95b;stop-opacity:1;" /></linearGradient><linearGradient
       xlink:href="#linearGradient7"
       id="linearGradient8"
       x1="461.15359"
       y1="124.31007"
       x2="850.6825"
       y2="124.31007"
       gradientUnits="userSpaceOnUse"
       gradientTransform="matrix(-2.8735298,0,0,-2.8735298,2385.6213,385.86446)" /><linearGradient
       xlink:href="#linearGradient9"
       id="linearGradient10"
       x1="182.46239"
       y1="95.935326"
       x2="630.59473"
       y2="95.935326"
       gradientUnits="userSpaceOnUse"
       gradientTransform="translate(-74.009898,44.685216)" /><linearGradient
       xlink:href="#linearGradient11"
       id="linearGradient12"
       x1="185.16122"
       y1="117.27635"
       x2="438.01413"
       y2="117.27635"
       gradientUnits="userSpaceOnUse" /><linearGradient
       xlink:href="#linearGradient13"
       id="linearGradient14"
       x1="254.06139"
       y1="173.0376"
       x2="677.13275"
       y2="173.0376"
       gradientUnits="userSpaceOnUse" /><linearGradient
       xlink:href="#linearGradient13"
       id="linearGradient14-6"
       x1="254.06139"
       y1="173.0376"
       x2="677.13275"
       y2="173.0376"
       gradientUnits="userSpaceOnUse"
       gradientTransform="matrix(-1,0,0,1,2000.1197,0)" /><linearGradient
       xlink:href="#linearGradient11"
       id="linearGradient12-9"
       x1="185.16122"
       y1="117.27635"
       x2="438.01413"
       y2="117.27635"
       gradientUnits="userSpaceOnUse"
       gradientTransform="matrix(-1,0,0,1,2000.1197,0)" /><linearGradient
       xlink:href="#linearGradient7"
       id="linearGradient1"
       gradientUnits="userSpaceOnUse"
       gradientTransform="matrix(2.8735298,0,0,-2.8735298,-385.5016,385.86446)"
       x1="461.15359"
       y1="124.31007"
       x2="850.6825"
       y2="124.31007" /><linearGradient
       xlink:href="#sw-gradient-6"
       id="linearGradient2"
       gradientUnits="userSpaceOnUse"
       gradientTransform="matrix(3.410905,6.0693997,5.869295,-3.2984494,1299.6864,108.78013)"
       x1="0.54537833"
       y1="13.93745"
       x2="28.396441"
       y2="13.937451" /><linearGradient
       xlink:href="#linearGradient5"
       id="linearGradient3"
       gradientUnits="userSpaceOnUse"
       gradientTransform="matrix(-1.9287235,0,0,2.0701451,2565.4819,-56.561604)"
       x1="308.03525"
       y1="100"
       x2="691.96472"
       y2="100" /><linearGradient
       xlink:href="#linearGradient9"
       id="linearGradient4"
       gradientUnits="userSpaceOnUse"
       gradientTransform="matrix(-1,0,0,1,2074.1296,44.685216)"
       x1="182.46239"
       y1="95.935326"
       x2="630.59473"
       y2="95.935326" /><linearGradient
       xlink:href="#sw-gradient-6"
       id="linearGradient15"
       gradientUnits="userSpaceOnUse"
       gradientTransform="matrix(-3.410905,6.0693997,-5.869295,-3.2984494,700.43331,108.78013)"
       x1="0.54537833"
       y1="13.93745"
       x2="28.396441"
       y2="13.937451" /><linearGradient
       xlink:href="#linearGradient9"
       id="linearGradient16"
       gradientUnits="userSpaceOnUse"
       gradientTransform="translate(-74.009898,44.685216)"
       x1="182.46239"
       y1="95.935326"
       x2="630.59473"
       y2="95.935326" /><linearGradient
       xlink:href="#linearGradient9"
       id="linearGradient17"
       gradientUnits="userSpaceOnUse"
       gradientTransform="translate(-74.009898,44.685216)"
       x1="182.46239"
       y1="95.935326"
       x2="630.59473"
       y2="95.935326" /><linearGradient
       xlink:href="#linearGradient9"
       id="linearGradient18"
       gradientUnits="userSpaceOnUse"
       gradientTransform="translate(-74.009898,44.685216)"
       x1="182.46239"
       y1="95.935326"
       x2="630.59473"
       y2="95.935326" /><linearGradient
       xlink:href="#linearGradient7"
       id="linearGradient19"
       gradientUnits="userSpaceOnUse"
       gradientTransform="matrix(-2.8735298,0,0,-2.8735298,2385.6213,385.86446)"
       x1="461.15359"
       y1="124.31007"
       x2="850.6825"
       y2="124.31007" /><linearGradient
       xlink:href="#sw-gradient-6"
       id="linearGradient20"
       gradientUnits="userSpaceOnUse"
       gradientTransform="matrix(-3.410905,6.0693997,-5.869295,-3.2984494,700.43331,108.78013)"
       x1="0.54537833"
       y1="13.93745"
       x2="28.396441"
       y2="13.937451" /><linearGradient
       xlink:href="#linearGradient7"
       id="linearGradient21"
       gradientUnits="userSpaceOnUse"
       gradientTransform="matrix(-2.8735298,0,0,-2.8735298,2385.6213,385.86446)"
       x1="461.15359"
       y1="124.31007"
       x2="850.6825"
       y2="124.31007" /><linearGradient
       xlink:href="#linearGradient5"
       id="linearGradient22"
       gradientUnits="userSpaceOnUse"
       gradientTransform="matrix(1.9287235,0,0,2.0701451,-565.36217,-56.561604)"
       x1="308.03525"
       y1="100"
       x2="691.96472"
       y2="100" /><linearGradient
       xlink:href="#linearGradient13"
       id="linearGradient23"
       gradientUnits="userSpaceOnUse"
       x1="254.06139"
       y1="173.0376"
       x2="677.13275"
       y2="173.0376" /><linearGradient
       xlink:href="#linearGradient13"
       id="linearGradient24"
       gradientUnits="userSpaceOnUse"
       x1="254.06139"
       y1="173.0376"
       x2="677.13275"
       y2="173.0376" /><linearGradient
       xlink:href="#linearGradient9"
       id="linearGradient25"
       gradientUnits="userSpaceOnUse"
       gradientTransform="translate(-74.009898,44.685216)"
       x1="182.46239"
       y1="95.935326"
       x2="630.59473"
       y2="95.935326" /><linearGradient
       xlink:href="#linearGradient11"
       id="linearGradient26"
       gradientUnits="userSpaceOnUse"
       x1="185.16122"
       y1="117.27635"
       x2="438.01413"
       y2="117.27635" /><linearGradient
       xlink:href="#linearGradient7"
       id="linearGradient27"
       gradientUnits="userSpaceOnUse"
       gradientTransform="matrix(-2.8735298,0,0,-2.8735298,2385.6213,385.86446)"
       x1="461.15359"
       y1="124.31007"
       x2="850.6825"
       y2="124.31007" /><linearGradient
       xlink:href="#linearGradient9"
       id="linearGradient28"
       gradientUnits="userSpaceOnUse"
       gradientTransform="matrix(-1,0,0,1,2074.1296,44.685216)"
       x1="182.46239"
       y1="95.935326"
       x2="630.59473"
       y2="95.935326" /><linearGradient
       xlink:href="#linearGradient13"
       id="linearGradient29"
       gradientUnits="userSpaceOnUse"
       gradientTransform="matrix(-1,0,0,1,2000.1197,0)"
       x1="254.06139"
       y1="173.0376"
       x2="677.13275"
       y2="173.0376" /><linearGradient
       xlink:href="#linearGradient13"
       id="linearGradient30"
       gradientUnits="userSpaceOnUse"
       gradientTransform="matrix(-1,0,0,1,2000.1197,0)"
       x1="254.06139"
       y1="173.0376"
       x2="677.13275"
       y2="173.0376" /><linearGradient
       xlink:href="#linearGradient7"
       id="linearGradient31"
       gradientUnits="userSpaceOnUse"
       gradientTransform="matrix(2.8735298,0,0,-2.8735298,-385.5016,385.86446)"
       x1="461.15359"
       y1="124.31007"
       x2="850.6825"
       y2="124.31007" /><linearGradient
       xlink:href="#linearGradient5"
       id="linearGradient32"
       gradientUnits="userSpaceOnUse"
       gradientTransform="matrix(-1.9287235,0,0,2.0701451,2565.4819,-56.561604)"
       x1="308.03525"
       y1="100"
       x2="691.96472"
       y2="100" /><linearGradient
       xlink:href="#linearGradient9"
       id="linearGradient33"
       gradientUnits="userSpaceOnUse"
       gradientTransform="matrix(-1,0,0,1,2074.1296,44.685216)"
       x1="182.46239"
       y1="95.935326"
       x2="630.59473"
       y2="95.935326" /><linearGradient
       xlink:href="#linearGradient11"
       id="linearGradient34"
       gradientUnits="userSpaceOnUse"
       gradientTransform="matrix(-1,0,0,1,2000.1197,0)"
       x1="185.16122"
       y1="117.27635"
       x2="438.01413"
       y2="117.27635" /><linearGradient
       xlink:href="#linearGradient9"
       id="linearGradient35"
       gradientUnits="userSpaceOnUse"
       gradientTransform="matrix(-1,0,0,1,2074.1296,44.685216)"
       x1="182.46239"
       y1="95.935326"
       x2="630.59473"
       y2="95.935326" /><linearGradient
       xlink:href="#linearGradient9"
       id="linearGradient36"
       gradientUnits="userSpaceOnUse"
       gradientTransform="matrix(-1,0,0,1,2074.1296,44.685216)"
       x1="182.46239"
       y1="95.935326"
       x2="630.59473"
       y2="95.935326" /><linearGradient
       xlink:href="#linearGradient7"
       id="linearGradient37"
       gradientUnits="userSpaceOnUse"
       gradientTransform="matrix(2.8735298,0,0,-2.8735298,-385.5016,385.86446)"
       x1="461.15359"
       y1="124.31007"
       x2="850.6825"
       y2="124.31007" /><linearGradient
       xlink:href="#sw-gradient-6"
       id="linearGradient38"
       gradientUnits="userSpaceOnUse"
       gradientTransform="matrix(3.410905,6.0693997,5.869295,-3.2984494,1299.6864,108.78013)"
       x1="0.54537833"
       y1="13.93745"
       x2="28.396441"
       y2="13.937451" /><linearGradient
       xlink:href="#linearGradient7"
       id="linearGradient39"
       gradientUnits="userSpaceOnUse"
       gradientTransform="matrix(2.8735298,0,0,-2.8735298,-385.5016,385.86446)"
       x1="461.15359"
       y1="124.31007"
       x2="850.6825"
       y2="124.31007" /></defs><g
     id="layer1"><path
       d="m 496.07721,192.35777 c 1.22556,2.54219 2.33766,5.11049 3.60702,7.64243 h 56.45133 C 558.21213,168.00509 529.38291,126.27569 509.3963,86.012838 494.81516,57.267031 484.70542,29.838437 472.01873,6.7908 c -2.13597,13.796421 -3.15358,27.649222 -2.83755,41.140124 1.10001,46.953809 17.1161,89.725026 26.31054,140.442586 0.22243,1.28836 0.37156,2.68555 0.58549,3.98426 z"
       style="fill:url(#linearGradient16);stroke-width:3.19644"
       id="path515" /><path
       d="m 496.07721,192.35777 c -0.21393,-1.29871 -0.36306,-2.6959 -0.58549,-3.98426 -9.19444,-50.71756 -25.21053,-93.488777 -26.31054,-140.442586 -0.31603,-13.490902 0.70158,-27.343703 2.83755,-41.140124 -0.35052,-0.6367887 -0.68571,-1.3096531 -1.04076,-1.9388998 -5.28901,18.4010888 -8.10868,37.7370888 -8.44548,56.5918948 -0.82147,46.273585 13.4676,89.267825 33.54472,130.913975 z"
       style="fill:url(#linearGradient17);stroke-width:3.19644"
       id="path514" /><path
       d="m 497.20014,200.0002 h 2.48409 c -1.26936,-2.53194 -2.38146,-5.10024 -3.60702,-7.64243 0.41037,2.49111 0.73806,5.11774 1.12293,7.64243 z"
       style="fill:url(#linearGradient18);stroke-width:3.19644"
       id="path513" /><path
       d="m 962.7924,125.53497 c -10.68691,26.52567 -31.44578,51.80721 -53.35592,74.46523 h 87.3125 c -13.603,-24.65511 -24.94702,-49.62122 -33.95658,-74.46523 z"
       style="fill:url(#linearGradient19);stroke-width:8.29809"
       id="path505" /><path
       d="m 940.1421,15.982487 c 1.18719,35.07542 9.06652,72.095032 22.6503,109.552483 4.60743,-11.43599 7.50265,-23.02821 7.64966,-34.650078 0.32628,-25.790651 -12.21059,-51.595339 -30.29996,-74.902405 z"
       style="fill:url(#linearGradient20);stroke-width:0"
       id="path504" /><path
       d="M 926.68194,0.04134115 C 931.4473,5.1847514 935.9076,10.526595 940.1421,15.982487 939.96148,10.646131 939.66337,5.2774847 939.80103,0.04134115 Z"
       style="fill:url(#linearGradient21);stroke-width:8.29809"
       id="path503" /><path
       d="M 854.27085,0.04134115 C 863.56104,21.243506 869.38156,44.356699 871.58142,67.235173 875.70219,113.44627 865.21951,159.04309 844.19137,200.0002 h 65.24511 C 931.34662,177.34218 952.10549,152.06064 962.7924,125.53497 949.20862,88.077519 941.32929,51.057907 940.1421,15.982487 935.9076,10.526595 931.4473,5.1847514 926.68194,0.04134115 Z"
       style="fill:url(#linearGradient15);stroke-width:0"
       id="path502" /><path
       d="M 669.03772,0.04134115 C 701.65669,34.683417 729.41783,74.080469 747.6448,120.465 c 9.59125,25.17091 16.05067,52.38579 19.23087,79.5352 h 77.3157 C 865.21951,159.04309 875.70219,113.44627 871.58142,67.235173 869.38156,44.356699 863.56104,21.243506 854.27085,0.04134115 Z"
       style="fill:#f1c21b;stroke-width:3.04804"
       id="path500" /><path
       d="M 595.22672,0.04134115 C 618.42974,21.299856 632.9253,52.589479 647.7646,84.246537 c 15.87841,33.874133 32.55074,67.748123 28.84578,99.240453 -0.66106,5.57164 -2.15128,11.05832 -3.98012,16.51321 h 94.24541 C 763.69547,172.85079 757.23605,145.63591 747.6448,120.465 729.41783,74.080469 701.65669,34.683417 669.03772,0.04134115 Z"
       style="fill:url(#linearGradient22);stroke-width:0"
       id="path498" /><path
       d="M 473.17577,0.04134115 C 472.75874,2.2893179 472.36762,4.5373018 472.01873,6.7908 c 12.68669,23.047637 22.79643,50.476231 37.37757,79.222038 19.98661,40.262852 48.81583,81.992252 46.73926,113.987362 h 116.4947 c 1.82884,-5.45489 3.31906,-10.94157 3.98012,-16.51321 C 680.31534,151.99466 663.64301,118.12067 647.7646,84.246537 632.9253,52.589479 618.42974,21.299856 595.22672,0.04134115 Z"
       style="fill:url(#linearGradient23);stroke-width:2.64641"
       id="path496" /><path
       d="m 472.53963,0.04134115 c -0.50756,1.61275535 -1.09354,3.18192385 -1.56166,4.81055905 0.35505,0.6292467 0.69024,1.3021111 1.04076,1.9388998 0.34889,-2.2534982 0.74001,-4.5014821 1.15704,-6.74945885 z"
       style="fill:url(#linearGradient24);stroke-width:2.64641"
       id="path494" /><path
       d="m 468.39467,0.04134115 c 0.91225,1.51308175 1.70232,3.24920225 2.5833,4.81055905 0.46812,-1.6286352 1.0541,-3.1978037 1.56166,-4.81055905 z"
       style="fill:url(#linearGradient14);stroke-width:2.64641"
       id="path492" /><path
       d="M 350.72226,0.04134115 C 372.46565,11.346965 392.2924,32.084217 407.80715,54.355339 c 22.30402,32.196971 36.15409,67.092061 27.70012,94.252641 -6.45674,20.60678 -25.87914,36.68358 -49.65279,51.39222 h 111.34566 c -0.38487,-2.52469 -0.71256,-5.15132 -1.12293,-7.64243 -20.07712,-41.64615 -34.36619,-84.64039 -33.54472,-130.913975 0.3368,-18.854806 3.15647,-38.190806 8.44548,-56.5918948 -0.88098,-1.5613568 -1.67105,-3.2974773 -2.5833,-4.81055905 z"
       style="fill:url(#linearGradient25);stroke-width:3.19644"
       id="path490" /><path
       d="M 324.26961,0.04134115 C 301.60794,14.788055 281.97383,33.899672 269.8564,56.988253 c -19.58351,37.579083 -19.84806,85.479127 -6.88072,127.292487 1.62249,5.3407 3.47198,10.57275 5.50251,15.71946 h 117.37629 c 23.77365,-14.70864 43.19605,-30.78544 49.65279,-51.39222 8.45397,-27.16058 -5.3961,-62.05567 -27.70012,-94.252641 C 392.2924,32.084217 372.46565,11.346965 350.72226,0.04134115 Z"
       style="fill:url(#linearGradient26);stroke-width:1.79871"
       id="path488" /><path
       d="M 283.51086,0.04134115 C 262.79691,10.159359 242.76987,27.976153 225.95727,48.599618 c -27.16051,33.2762 -45.86723,73.746852 -39.57175,111.339972 2.36168,14.17012 8.24235,27.93499 16.4636,40.06061 h 65.62907 c -2.03053,-5.14671 -3.88002,-10.37876 -5.50251,-15.71946 C 250.00834,142.46738 250.27289,94.567336 269.8564,56.988253 281.97383,33.899672 301.60794,14.788055 324.26961,0.04134115 Z"
       style="fill:url(#linearGradient12);stroke-width:1.79871"
       id="path486" /><path
       d="M 181.47419,0.04134115 C 157.51628,19.776275 136.98689,44.247552 124.22446,72.907178 107.16466,111.21681 104.02739,157.05361 114.95577,200.0002 h 87.89335 c -8.22125,-12.12562 -14.10192,-25.89049 -16.4636,-40.06061 -6.29548,-37.59312 12.41124,-78.063772 39.57175,-111.339972 16.8126,-20.623465 36.83964,-38.440259 57.55359,-48.55827685 z"
       style="fill:url(#linearGradient10);stroke-width:3.19644"
       id="path484" /><path
       d="M 141.56345,0.04134115 C 98.262393,32.095016 60.051417,68.341907 41.991235,114.00441 31.089298,140.39505 27.343985,170.02446 29.424561,200.0002 h 85.531209 c -10.92838,-42.94659 -7.79111,-88.78339 9.26869,-127.093022 12.76243,-28.659626 33.29182,-53.130903 57.24973,-72.86583685 z"
       style="fill:url(#linearGradient6);stroke-width:0"
       id="path482" /><path
       d="M 0.04134115,0.14107666 V 200.0002 H 29.424561 C 27.343985,170.02446 31.089298,140.39505 41.991235,114.00441 60.051417,68.341907 98.262393,32.095016 141.56345,0.04134115 H 0.07596436 C 0.06399996,0.07414822 0.05330482,0.10826765 0.04134115,0.14107666 Z"
       style="fill:url(#linearGradient27);stroke-width:8.29809"
       id="path480" /><path
       d="M 0.04134115,0.14107666 C 0.05330482,0.10826765 0.06399996,0.07414822 0.07596436,0.04134115 H 0.04134115 Z"
       style="fill:url(#linearGradient8);stroke-width:8.29809"
       id="path479" /><path
       d="m 1529.1418,4.8519002 c -0.355,0.6292467 -0.6902,1.3021111 -1.0408,1.9388998 2.136,13.796421 3.1536,27.649222 2.8376,41.140124 -1.1,46.953809 -17.1161,89.725026 -26.3105,140.442586 -0.2224,1.28803 -0.3717,2.68485 -0.5855,3.98322 20.0768,-41.64585 34.3657,-84.63971 33.5442,-130.912935 -0.3368,-18.854806 -3.156,-38.190806 -8.445,-56.5918948 z"
       style="fill:url(#linearGradient28);stroke-width:3.19644"
       id="path473" /><path
       d="m 1527.5801,0.04134115 h -0.6361 c 0.417,2.24797675 0.8082,4.49596065 1.157,6.74945885 0.3506,-0.6367887 0.6858,-1.3096531 1.0408,-1.9388998 -0.4681,-1.6286352 -1.0541,-3.1978037 -1.5617,-4.81055905 z"
       style="fill:url(#linearGradient29);stroke-width:2.64641"
       id="path465" /><path
       d="m 1531.7251,0.04134115 h -4.145 c 0.5076,1.61275535 1.0936,3.18192385 1.5617,4.81055905 0.881,-1.5613568 1.6711,-3.2974773 2.5833,-4.81055905 z"
       style="fill:url(#linearGradient30);stroke-width:2.64641"
       id="path463" /><path
       d="m 1970.6952,200.0002 h 29.2633 V 0.04134115 h -141.4022 c 43.3011,32.05367485 81.5121,68.30056585 99.5722,113.96306885 10.902,26.39064 14.6473,56.02005 12.5667,85.99579 z"
       style="fill:url(#linearGradient31);stroke-width:8.29809"
       id="path457" /><path
       d="m 1885.164,200.0002 h 85.5312 c 2.0806,-29.97574 -1.6647,-59.60515 -12.5667,-85.99579 -18.0601,-45.662503 -56.2711,-81.909394 -99.5722,-113.96306885 h -39.9107 c 23.9579,19.73493385 44.4867,44.20621085 57.2492,72.86583685 17.0598,38.309612 20.1976,84.146452 9.2692,127.093022 z"
       style="fill:url(#linearGradient32);stroke-width:0"
       id="path455" /><path
       d="m 1797.2707,200.0002 h 87.8933 c 10.9284,-42.94657 7.7906,-88.78341 -9.2692,-127.093022 -12.7625,-28.659626 -33.2913,-53.130903 -57.2492,-72.86583685 h -102.0367 c 20.714,10.11801785 40.741,27.93481185 57.5536,48.55827685 27.1605,33.2762 45.8673,73.746852 39.5718,111.339972 -2.3617,14.17012 -8.2424,27.93499 -16.4636,40.06061 z"
       style="fill:url(#linearGradient33);stroke-width:3.19644"
       id="path453" /><path
       d="m 1731.6416,200.0002 h 65.6291 c 8.2212,-12.12562 14.1019,-25.89049 16.4636,-40.06061 6.2955,-37.59312 -12.4113,-78.063772 -39.5718,-111.339972 -16.8126,-20.623465 -36.8396,-38.440259 -57.5536,-48.55827685 h -40.7593 c 22.6617,14.74671485 42.2963,33.85832485 54.4138,56.94691185 19.5835,37.579083 19.8481,85.479127 6.8807,127.292487 -1.6225,5.3407 -3.472,10.57275 -5.5025,15.71946 z"
       style="fill:url(#linearGradient34);stroke-width:1.79871"
       id="path451" /><path
       d="m 1614.2653,200.0002 h 117.3763 c 2.0305,-5.14671 3.88,-10.37876 5.5025,-15.71946 12.9674,-41.81336 12.7028,-89.713404 -6.8807,-127.292487 -12.1175,-23.088587 -31.7521,-42.200197 -54.4138,-56.94691185 h -26.4521 C 1627.6541,11.346965 1607.8274,32.084217 1592.3126,54.355339 c -22.304,32.196971 -36.154,67.092061 -27.7001,94.252641 6.4568,20.60678 25.8791,36.68358 49.6528,51.39222 z"
       style="fill:url(#linearGradient12-9);stroke-width:1.79871"
       id="path449" /><path
       d="m 1502.9196,200.0002 h 111.3457 c -23.7737,-14.70864 -43.196,-30.78544 -49.6528,-51.39222 -8.4539,-27.16058 5.3961,-62.05567 27.7001,-94.252641 15.5148,-22.271122 35.3415,-43.008374 57.0849,-54.31399785 h -117.6724 c -0.9122,1.51308175 -1.7023,3.24920225 -2.5833,4.81055905 5.289,18.4010888 8.1082,37.7370888 8.445,56.5918948 0.8215,46.273225 -13.4674,89.267085 -33.5442,130.912935 -0.4105,2.49144 -0.738,5.11845 -1.123,7.64347 z"
       style="fill:url(#linearGradient35);stroke-width:3.19644"
       id="path447" /><path
       d="m 1500.435,200.0002 h 2.4846 c 0.385,-2.52502 0.7125,-5.15203 1.123,-7.64347 -1.2258,2.54253 -2.338,5.1112 -3.6076,7.64347 z"
       style="fill:url(#linearGradient36);stroke-width:3.19644"
       id="path445" /><path
       d="m 1443.9842,200.0002 h 56.4508 c 1.2696,-2.53227 2.3818,-5.10094 3.6076,-7.64347 0.2138,-1.29837 0.3631,-2.69519 0.5855,-3.98322 9.1944,-50.71756 25.2105,-93.488777 26.3105,-140.442586 0.316,-13.490902 -0.7016,-27.343703 -2.8376,-41.140124 -12.6866,23.047637 -22.7964,50.476231 -37.3775,79.222038 -19.9866,40.262852 -48.8159,81.992252 -46.7393,113.987362 z"
       style="fill:url(#linearGradient4);stroke-width:3.19644"
       id="path443" /><path
       d="m 1327.4895,200.0002 h 116.4947 c -2.0766,-31.99511 26.7527,-73.72451 46.7393,-113.987362 14.5811,-28.745807 24.6909,-56.174401 37.3775,-79.222038 -0.3488,-2.2534982 -0.74,-4.5014821 -1.157,-6.74945885 h -122.0509 c -23.203,21.25851485 -37.6986,52.54813785 -52.5379,84.20519585 -15.8784,33.874133 -32.5508,67.748123 -28.8458,99.240453 0.6611,5.57164 2.1513,11.05832 3.9801,16.51321 z"
       style="fill:url(#linearGradient14-6);stroke-width:2.64641"
       id="path441" /><path
       d="m 1233.2441,200.0002 h 94.2454 c -1.8288,-5.45489 -3.319,-10.94157 -3.9801,-16.51321 -3.705,-31.49233 12.9674,-65.36632 28.8458,-99.240453 14.8393,-31.657058 29.3349,-62.946681 52.5379,-84.20519585 h -73.811 C 1298.4631,34.683417 1270.7019,74.080469 1252.475,120.465 c -9.5913,25.17091 -16.0507,52.38579 -19.2309,79.5352 z"
       style="fill:url(#linearGradient3);stroke-width:0"
       id="path439" /><path
       d="m 1155.9284,200.0002 h 77.3157 c 3.1802,-27.14941 9.6396,-54.36429 19.2309,-79.5352 18.2269,-46.384531 45.9881,-85.781583 78.6071,-120.42365885 h -185.2332 c -9.2902,21.20216485 -15.1107,44.31535785 -17.3105,67.19383185 -4.1208,46.211117 6.3619,91.807897 27.39,132.765027 z"
       style="fill:#f1c21b;stroke-width:3.04804"
       id="path437" /><path
       d="m 1037.3274,125.53497 c -9.0096,24.84401 -20.3536,49.81012 -33.9566,74.46523 h 87.312 c -21.9101,-22.65798 -42.6685,-47.93962 -53.3554,-74.46523 z"
       style="fill:url(#linearGradient37);stroke-width:8.29809"
       id="path435" /><path
       d="m 1059.9772,15.983004 c -18.0892,23.306916 -30.6258,49.111449 -30.2995,74.901888 0.147,11.621868 3.0422,23.214088 7.6497,34.650078 13.5837,-37.457264 21.4625,-74.476701 22.6498,-109.551966 z"
       style="fill:url(#linearGradient38);stroke-width:0"
       id="path434" /><path
       d="m 1059.9772,15.983004 c -1.1873,35.075265 -9.0661,72.094702 -22.6498,109.551966 10.6869,26.52561 31.4453,51.80725 53.3554,74.46523 h 65.2456 c -21.0281,-40.95713 -31.5108,-86.55391 -27.39,-132.765027 2.1998,-22.878474 8.0203,-45.991667 17.3105,-67.19383185 h -72.4111 c -4.7655,5.14359095 -9.226,10.48556885 -13.4606,15.94166285 z"
       style="fill:url(#linearGradient2);stroke-width:0"
       id="path433" /><path
       d="M 1060.3182,0.04134115 H 939.80103 c -0.13766,5.23614355 0.16045,10.60478985 0.34107,15.94114585 18.08937,23.307066 30.62624,49.111754 30.29996,74.902405 -0.14701,11.621868 -3.04223,23.214088 -7.64966,34.650078 9.00956,24.84401 20.35358,49.81012 33.95658,74.46523 h 6.62182 c 13.603,-24.65511 24.947,-49.62122 33.9566,-74.46523 -4.6075,-11.43599 -7.5027,-23.02821 -7.6497,-34.650078 -0.3263,-25.790439 12.2103,-51.594972 30.2995,-74.901888 0.1806,-5.336536 0.4787,-10.7053468 0.341,-15.94166285 z"
       style="fill:url(#linearGradient39);stroke-width:8.29809"
       id="path432" /><path
       d="m 1060.3182,0.04134115 c 0.1377,5.23631605 -0.1604,10.60512685 -0.341,15.94166285 4.2346,-5.456094 8.6951,-10.7980719 13.4606,-15.94166285 z"
       style="fill:url(#linearGradient1);stroke-width:8.29809"
       id="path431" /></g></svg>
